<svg width="60" height="50" viewBox="0 0 60 50" fill="none" xmlns="http://www.w3.org/2000/svg">
<g clip-path="url(#clip0_999_127)">
<path d="M59.8431 1.30702V48.781C59.4651 49.535 58.6981 50.043 57.8121 50.043C57.7481 50.043 57.6851 50.04 57.6221 50.035L57.6301 50.036H2.19406C2.12806 50.044 2.05106 50.048 1.97306 50.048C0.876061 50.048 -0.0129395 49.159 -0.0129395 48.062C-0.0129395 47.984 -0.00893945 47.907 6.05462e-05 47.831L-0.000939454 47.84C-0.000939454 32.6134 -0.000939454 17.387 -0.000939454 2.16102C-0.00593945 2.10602 -0.00993945 2.04202 -0.00993945 1.97702C-0.00993945 0.880023 0.87906 -0.00897705 1.97606 -0.00897705C2.04706 -0.00897705 2.11606 -0.00497705 2.18506 0.00202295L2.17606 0.00102295C20.6661 0.00102295 39.1447 0.00102295 57.6121 0.00102295C57.6871 -0.00797705 57.7741 -0.0139771 57.8631 -0.0139771C58.7501 -0.0139771 59.5111 0.525023 59.8371 1.29302L59.8421 1.30702H59.8431ZM22.5441 24.983V30.575C22.5451 30.941 22.5961 31.295 22.6901 31.631L22.6831 31.603C23.0381 32.503 23.9011 33.128 24.9091 33.128C25.4191 33.128 25.8921 32.968 26.2801 32.695L26.2721 32.7C29.6001 30.784 32.8921 28.85 36.1851 26.899C36.8651 26.531 37.3181 25.823 37.3181 25.009C37.3181 24.195 36.8641 23.487 36.1961 23.124L36.1851 23.118C32.8921 21.097 29.5131 19.163 26.1331 17.212C25.7801 16.992 25.3511 16.861 24.8921 16.861C23.5831 16.861 22.5231 17.922 22.5231 19.23C22.5231 19.28 22.5251 19.33 22.5281 19.379V19.372C22.6501 21.236 22.5451 23.118 22.5451 24.982L22.5441 24.983ZM9.44306 6.55102V3.57202H3.57206V6.55102H9.44306ZM3.48406 46.376H9.44206V43.449H3.48406V46.376ZM18.8331 3.57102H13.0661V6.53302H18.8331V3.57102ZM22.4561 3.57102V6.53302H28.2401V3.48402L22.4561 3.57102ZM37.6131 6.55102V3.57202H31.8461V6.53402L37.6131 6.55102ZM47.0381 3.57102H41.2191V6.53302H47.0381V3.57102ZM37.6311 46.394V43.554H31.8471V46.481L37.6311 46.394ZM18.8151 46.394V43.554H13.0481V46.481L18.8151 46.394ZM28.2401 46.394V43.554H22.4731V46.498L28.2401 46.394ZM47.0381 43.449H41.2191V46.376H47.0381V43.449ZM56.2891 6.55102V3.48502H50.6271V6.55102H56.2891ZM56.2891 43.449H50.6271V46.393H56.3061L56.2891 43.449Z" fill="#BDAE82"/>
</g>
<defs>
<clipPath id="clip0_999_127">
<rect width="60" height="50" fill="white"/>
</clipPath>
</defs>
</svg>
